<svg width="794" height="158" fill="none" xmlns="http://www.w3.org/2000/svg"><path d="M133 17l-2 4c0 2-6 8-8 8l-2 1 1 1 4 2c5 4 12 6 18 5h12c1-2 2-1-6-4-6-2-6-2-6-6l1-9 2-5h-6c-5 0-5 0-8 3zM675 38l-7 1h-5l4 3c5 6 10 7 19 6l9-2c1-1-10-7-15-8h-5zm14 6h-2c-2-1-2-1 0-1l2 1zM617 102l-4 10-5 13c-1 5-3 7-5 6h-5l-3 1 3 2 4 3-4 4-3 4c0 1 12-1 15-3h17c3 0 4 0 5-2s1-3-3-3c-6-1-9-3-9-5l2-5c2-9 1-26-3-26-1-1-2 0-2 1zM13 81l-3 1H3l-2 1 5 3 8 5c4 2 25 2 25 1l-9-6c-11-5-17-7-17-5zM242 27l-5 11-5 12c0 2-1 3-6 3h-5l3 3 4 3-2 3-8 19c5 0 19-11 20-15 1-2 2-2 5-2l6 1h4c2-2 2-3-1-4l-6-3-3-2 2-4c2-5 3-13 1-20-1-5-4-8-4-5zM559 1c-2 0-2 1-2 2 0 2-1 2-6 2l-5 2 1 1 4 3 7 4c4 2 20 4 22 3l-5-3c-6-4-7-7-1-9l5-1c2 0 2-3 0-4h-20zM767 91c-1 2-1 3-6 3h-5l5 5c7 7 15 13 18 13 2 0 2-1 0-4l-2-4c1-1 7-1 9 1 3 2 3 2 5 0 3-3 3-4-1-4-3 0-8-3-8-4l4-1 5-1c0-2-9-5-17-5-6-1-6-1-7 1zM456 42c-8 3-11 6-11 9 1 2 0 2-4 3l-5 1 3 2c7 5 9 6 18 7 11 0 14-1 6-4-4-2-5-3-6-5-1-3 0-4 3-8l3-5c-1-2-1-2-7 0zM494 48l-3 1 4 3c3 1 5 2 4 3l8 14c4 5 7 8 7 5l-1-8c-1-8 0-9 5-5 3 2 5 2 4-1l1-2c1 0 3 0 4-2 2-2 2-2-1-2l-9-3c-6-3-17-4-23-3zM591 58l-8 10c-1 2-2 2-7 2h-5l2 2c3 2 3 2 1 3-3 2-2 2 16 4l8 1c1 1 2 0 4-1v-2l-6-2-4-1 3-6c3-4 3-6 3-12l-1-6-6 8zM320 62l-9 20-6 2h-6l3 2 3 2-3 2-2 2h13l15 1 4-1c1-3 1-3-2-3l-6-2-2-1 2-4c2-5 2-12 0-17-2-4-3-5-4-3zM494 89c-5 2-7 3-7 5s-1 2-4 2c-4 0-5 2-3 3v3l3 6 4 4 2-3c1-3 1-3 5-2l5 1 4-1c2-1 2-1-2-3-3-2-4-2-4-5 0-2 1-3 5-6 3-1 5-3 4-4h-12zM133 111c-2 1-2 1 2 4 6 5 8 6 15 7h6l-3-2c-4-4-2-5 3-2h2l-7-4c-5-3-11-4-18-3zM423 114l-8 9c-6 6-6 7-10 7h-5l2 2 3 2-5 3c-6 4-4 4 4 2h8c6 1 11 2 13 0 1-1 1-2-1-2-5-2-6-3-6-4l1-2c3-2 8-18 6-19l-2 2zM300 136c-2 1-2 2-2 4 1 1 0 2-4 2s-5 0-3 1l3 4 13 11 1-3c-1-3 0-3 2-3l6 1c3 1 4 1 5-1 2-1 2-1 0-2l-6-3c-5-2-5-5 1-7 2-1 4-2 3-3 0-3-15-3-19-1z" fill="#2A2A28"/></svg>