<svg width="2772" height="365" fill="none" xmlns="http://www.w3.org/2000/svg"><path d="M2684 338l2 6-2 24c4-5 11-27 13-32l9-15c2-3 2-2-1 6-7 15-9 23-10 36-2 5 1 8 3 9 1-18 6-34 16-50 5-9 10-16 11-15l-5 12c-4 7-12 33-13 40 5-12 18-39 23-43 3-2 3-1-3 12s-11 28-12 43l2-2c5-9 12-16 20-21l10-3 7-9c5-6 8-6 8-6s13-4 5 0c-12 4-19 26-19 26l-5 15c6-11 16-30 20-32l6-5-11 14c-6 9-9 28-11 37l9 4v9l-591-31v-9l16-3c4-7 4-12 5-20l-1-8-2-10 5 8 2 9 3-10c1-5 4-8 5-9v7c-2 9-5 17-4 18 0 0-2 18 4 16 4-3 4-13 4-13l2-12 4-20c1-1 2 0 2 3v12c-3 4-1 12-1 12l7-13c1-1 1 2-2 9l-2 17v6s3 4 4 3v-7c2-24 4-39 7-33h1c2-1 4 10 4 26l-1 6 7-14-2-8-6-19 8 10c4 7 4 7 4-2 1-6 1-9-1-16l-2-6h1c3 3 5 9 6 16l2 21-1 4 3 8c4-10 5-20 2-30v-10l7 6 4 18v2l8-14 16-19-6 14-6 16-3 9 1-2 13-20 3-5 2 3 3-3-2 5 1 14 6 12c2-18-2-39 0-39l5 13 2 35v8c6-14 10-27 7-41-1-6-1-6 1-5l4 7c2 5 3 9 2 16 0 7 0 7 1 5 1-6 7-13 9-13l-2 16 3-6 4-4c1-3 17-36 21-33l-2 5-8 20 2 6 5 13-2-8c-2-8-2-11-1-11l7 13-3-23 4 7c9 16 10 27 14 42 3 16 8 0 8 0 1-13-8-24-13-37-5-12-6-16-4-16l11 15 3 5 1-3 3-5 1 5c0 6 1 15 8 30l6 7h1l-12-27c0-8-1-15 4-23l4 25 2-12c0-3 2-5 3-5 4 12 4 23 9 34 2-14 6-28 12-40 6-6 12-14 14-13l-5 13c-7 17-10 30-10 45v4l4 1c-2-5 6-37 16-58 6-12 13-21 19-30 6-7-9 21-11 23-1 6-13 38-13 46 2 5 12-28 12-30 3-2 11-20 13-18l-3 12-6 19-6 24 1-4c4-7 13-18 24-20l11-3 4-2c5-3 8-5 13-6l10-1-8 4c-6 2-7 4-5 9l2-1 9-3h3c0-1 0-5 1-2l8 8 2 6c5-7 2-16 0-23l-1-6c1-1 5 7 6 13 2 6 4 16 3 24l-1 5 2 5c5-10 10-14 7-26l-3-13 3 4c5 8 7 15 6 23l13-18c6-6 11-15 13-15l-7 17c-7 11-12 23-16 36 6-14 16-29 25-39 2-3 3-3 3-1v1l6-5-5 14c-8 14-14 24-18 38 0 0 7 3 9 0l1-1c1-10 5-21 10-30 5-8 10-16 12-16l-5 14v6l7-10c1 0 1 2-3 11v6l5-11 3-2-6-23c-3-7-3-6 0-3l9 19 7 18 7 9-2-18c-1-2 0-2 2 0l7 15v-7c0-1 7-26 11-24l-2 5c-4 10-4 18-1 28 0 0 1 19 4 13v-5c0-16 4-32 12-47l1 1c-4 15-3 39-3 49l9-27c2-4 2-15 3-14 2 1 1 14 0 33l3 14v2s10 9 9 0c-3-8-6-13-7-22-2-6-1-12 2-18l1 3 4 20 2-2-1-7c-2-5-1-12-1-15l3-9 1 5 2 7 3 20v-14l3-8c2-3 5 25 5 27l3-23 3-6h2zm-183-6l-10 6v2c-1 2-1 2 1 0h1v8l-3 16v7l4 1c2-1 0-6 0-6 1-22 4-37 7-31l2 1c2 10 4 20 3 30l6-13-9-22-2 1zm-20 1c-5 3-5 4-6 8v2l8-6 1-6c0-2 0-1-3 2zm-16 4h2l3-5c-1 1-7 3-5 5zm259 35l-3 12c0 6 6 7 8 0l4-15c3-9 5-15 12-21-11 6-17 14-21 24zm-266-31c-9 7-14 17-15 29v-1s8 4 9 0v-1c1-9 5-17 8-24 2-2 2-2 1-4v-2l-3 3zm126 23s-7 10-3 12c3 2 8 1 8 1 4-8 3-17 1-26 0-1-3 4-6 13zm-246-18l-1 17s3 4 5 4c1 1 4-3 4-3l-2-3-3-19-2-6-1 10zm-63-2l-7 16c-3 7 9 0 9 0v-6l2-16v-4l-4 10zm200 13v12c0 2 0 2 1 0l4-14 1-8-6 10zm38 16l-2-1c-1 2 4 3 6 1 2-1-1-6-1-6l-3 6z" fill="#222220"/><path d="M2050 20l4 4h6l27 37v3l-1 2 2 4c7 11 12 24 15 36l6 33v4l1 1h2l-2-2c-1-3-1-4 1-1 3 3 4 4 9 5 7 2 10 3 11 7 1 1 2 3 3 2a144 144 0 00-5-24l-2-1-3-3c-4-1-7-3-11-10-1-3-4-6-7-7l-1-1c0-1 1-1 3 1h1v-2l-1-3 2 2c1 3 3 5 7 8 7 4 9 6 10 9l1 3v-2c-7-19-17-37-29-53h1l3 5 3 4-3-5-3-4c10 12 19 25 25 39 10 19 14 34 15 54v7l1-5 1-5-2-1 2-2c2-2 2-2 2-6l1-4 2-20 1-7-1-2-2-3-7-4-3-7c-2-4-4-7-8-10v-1l2 1 2 1v-5 1l2 4 5 5 9 9v-5l-3-15-1-5-4-4-4-4 4 2 3 3-1-4-1-4c1-1 6 14 8 24l1 3c-1-6 0-8 5-15l3-8v-5l1 3v2l2-1c1-3 3-4 1-1l-2 4-1 8c0 8-1 10-4 13-1 1-3 2-3 4v35l6-7 2-7v-1l1 3v3l2-2c3-2 4-1 0 2-3 4-4 4-5 10l-4 10-4 5h-1c-2 12-5 23-9 34 6-9 12-15 18-18l4-2v2c-1 9-5 18-17 30l-8 6c-4 2-6 4-7 8l-5 26c12-14 26-26 41-35 5-3 5-3 10 0 8 5 14 9 15 12h-1l-4 1-15-2-3-1-1 2-3 4-11 18c-6 9-14 16-18 19l-6 2c-6 1-6 2-8 4-1 2-2 5-3 19l-1 7 3 7 1 8 1-2c3-13 7-25 14-36 3-5 3-3 0 7a220 220 0 00-7 59c1-23 3-45 12-66 4-11 10-21 12-20-5 15-8 30-10 45 5-16 11-28 15-33 3-3 3-2-2 15-4 17-7 35-8 53l-1 4 2-4c3-11 9-21 17-28l11-6 6-4c5-5 8-6 14-9 7-2 7-1 0 4-10 7-17 17-22 29l-4 15 1-1c4-14 13-26 22-32 4-3 14-7 14-6l-5 5c-8 6-14 13-19 23-5 11-8 22-8 34l9 1v10h-525v-10l14-3 4-29-2-10-2-13 5 9 1 4 3-6c1-6 3-10 5-11l-1 9-2 23 3 16 3-12 2-15 3-27 4 17c2-1 1 3 1 4l2-3v11l-2 22 1 13h3v-11c0-14 1-37 6-41 1-4 3 10 4 31l1 8 4-19-3-9-6-24c2 1 5 7 8 13 4 7 4 7 4-3 0-8 0-12-3-21v-8c13 8 10 41 8 53l3 9c3-13 4-26 1-39l-1-12c1 0 4 4 6 9 2 6 4 14 4 21l1 3 4-15c3-5 11-28 16-28l-10 38-2 10v2l14-36 1 3 3-3-1 20 2 8c0-24 2-38 4-38l2 9 2 6c2 8 4 24 4 45v10l1-3c5-16 6-33 4-49-3-8-3-9-1-8 6 10 8 20 8 31v5l7-17v20l3-7 2-5c2-16 8-32 15-42 1-2 3-3 3-2l-2 7-6 28 2 4 5 18-2-11c-2-11-2-15-1-14 4 5 5 12 8 17l-6-29c12 19 19 44 18 66l8 1c-4-19-8-36-14-54-4-14-5-19-4-19s7 9 11 18l3 6 1-4 2-5v6c1 7 3 17 10 37l6 14-12-39v-24l3-7v6c0 6 2 16 4 23l1 3 3-21 1 3c0 14 3 23 8 37l1 2c0-17 4-36 9-51 4-10 10-19 11-19l-3 17c-6 22-8 40-8 61l1 9c2 0 3 1 3-1 3-42 8-57 20-102 4-8 5-16 7-16l-3 14c-3 11-9 29-13 71 8-36 16-58 18-59v1l-3 15c-5 18-8 36-9 55l2-5c3-8 8-16 15-23l2-3c0-1 0-2 1-1l2-1 10-4 4-3c5-5 11-9 19-10l-6 5c-6 5-6 5-6 9l1 4 2-1 8-5 3-1-1-2c0-2 1-2 2 0l2 1v1l4 8 4 7v-2c1-7 0-18-2-28l-2-7c2-2 7 8 9 16s3 20 2 32l-1 5 1 4 1 4a79 79 0 001-40v-8l-1-3c1 0 4 2 5 5 3 7 5 15 6 26v2-2a178 178 0 0121-41 361 361 0 00-17 68c4-17 11-38 19-50 3-3 4-4 4-2v1l5-7-1 7-4 12c-6 18-11 36-14 54l8 1 1-8a171 171 0 0117-59l-3 17v7l6-12-2 15-1 7 5-15 2-4-1-5-6-22c-2-9-2-10 1-7 8 12 12 25 15 39l2 8 5 10 1 4-1-2a351 351 0 00-1-22c2 2 5 11 6 16l1 3v-10c0-10 0-13 3-20 1-6 5-11 5-10l-1 6c-2 12-2 23 0 35l4 18 1-7c-1-21 2-42 8-62l1 2 4 36 1-21c1-5 2-7 3-7 2 2 3 19 4 43v19l1 8 4-1 3 1v-4l-2-9-5-22c-1-7-1-17 1-21l1-2v5l4 20 2 5v-2l-1-10c-1-6-2-15-1-19 0-6 2-13 3-11l1 6c1 8 0 9 1 8s2 2 2 7l1 4v-4l2-10c1-3 2-2 3 9v-17c-3-15-4-32-5-47v-5l-3-4c-2-3-2-3-6-5l-4-2-2-1c-5-5-16-26-18-37-1-4-1-4 1-3 7 3 22 21 26 30l2 6 2 4 1 2v-9l2-36v-16c-3-24-12-47-22-64-5-7-5-7-7-7l-2-1-23-24-2-5v-2l-4-4-4-4h2l4 4 3 3 2-1c2 0 4 0 7 4l22 23c1 2 0 4-1 5v1l5 7c10 15 17 32 21 50l-1-14c-1-23-8-47-18-66l-1-3-3 1-4-1-13-17-12-17-1-7 1-1-3-3v-2zm59 141c0 14 0 16 1 14l1-2 1 2c6 7 10 18 11 37v4l2-4 7-19c2-4 2-9 2-22l1-12-2-1-4-2c-4 0-7-1-11-5l-8-7-1 17zm48 15l-7 11 9-11 1-3-3 3zm-46 4l3 12v-5c0-4-2-11-3-11v4zm-3 23c0 17 1 41 3 59 1 5 1 5 3-5 1-11 3-21 6-32l-1-2-2-3c-4-8-7-18-9-27v10zm-154 95l-8 8 1 3c-1 3-1 3 1 0l1-2-1 11-1 22v15h4v-14c-1-28 2-47 4-41l1 2h1c2 12 4 24 4 36v3l1-5 3-9 1-5-3-7-6-19-3 2zm-17 1c-4 5-4 6-5 11 0 4 0 5 1 3l3-4 3-4v-8l-2 2zm-12 4c-3 2-3 2-2 3l1 1 3-4 1-3-3 3zm246 0a60 60 0 00-19 48v4l4-1 3 1 1-6 2-20c2-10 7-20 13-29l-4 3zm-254 9c-7 10-11 22-11 38l-1 4 8 1 1-8c0-11 2-22 6-31l1-6-1-2-3 4zm113 21l-2 13-1 7 1 1 7 1v-3c1-7 0-32-1-37l-4 18zm-219-6v17l1 10 7 1-1-10-4-24-1-7c-1-1-1 6-2 13zm-56 1c-3 14-9 31 3 12l1-25-4 13zm180-6l-2 8c-1 3-2 4-1 6l2 11v-1l4-18v-11l-3 5zm110 25v8l1-6-1-10v8zm-245 5c0 3 2 3 2 2l-1-16-1 14zm168-4l-2 6 5 1v-10l-1-4-2 7z" fill="#222220"/><path d="M1172 308l-2 5v24c-3-5-9-27-11-32l-8-16c-2-3-2-2 0 6 7 16 8 24 9 37 1 5-2 8-4 9 0-18-4-35-13-51-5-9-9-17-10-16s0 3 4 13c3 7 10 33 11 40-5-12-16-40-21-44-3-2-3-1 2 12 6 14 10 29 10 44l-2-2c-4-10-11-17-19-22-4-2-4-3-9-4l-7-9c-5-6-8-7-8-7s-12-4-5 0c12 5 18 27 18 27l4 15c-5-11-14-30-18-33l-6-5 10 15c6 9 8 28 9 37v13h562v-13c-3-7 2-12 1-20l2-8 2-10-5 7-3 9-2-10c-1-5-4-8-5-9v7c2 9 4 17 3 18 0 0 1 18-5 16-4-3-3-13-3-13l-1-12-3-21c-1-1-2 0-3 3v12c3 4 0 12 0 12l-6-13c-1-1-1 2 1 9l1 17v6s-3 4-4 3v-7c0-24-2-39-5-33h-1c-2-2-4 9-5 25v6l-6-14 3-8 7-18-9 9c-4 7-4 7-4-2 0-6 0-9 2-16l2-6h-1c-3 3-5 9-7 16l-3 21 1 4-3 7c-4-10-4-20-1-30l1-7v-3l-7 6-5 18v2l-8-15-15-19 6 14c3 9 1 8 5 16l2 9-1-2c-3-7-7-13-12-20l-2-6-2 3-3-3 1 5-1 14c0 2-7 10-7 12-1-18 4-39 2-39l-6 13c-1 6-3 18-3 34l-1 8c-5-14-8-27-5-41 2-6 2-6 0-5l-5 7c-2 5-3 9-3 16s0 7-1 5c-1-6-6-14-8-14l1 16-3-6-3-4c-1-3-16-37-20-34l2 5 7 20-2 6-6 13 2-8c3-8 3-11 2-11l-8 13 5-23-5 7c-10 15-11 26-16 41-4 16-8 0-8 0 0-13 9-24 15-37 5-11 7-15 5-15-1 0-8 7-12 14l-3 5-1-3-3-5-1 5c0 6-2 14-10 29l-6 7h-1c5-10 9-16 13-27 1-8 2-15-2-23l-6 25-1-12c0-3-2-5-3-5-4 11-5 22-11 33-1-14-4-28-10-40-5-7-11-15-13-14l5 13c6 17 8 31 7 46v4h-4c2-5-4-37-13-58-5-13-12-22-17-31-6-8 7 21 9 23 1 6 11 39 11 47-2 5-11-29-11-31-2-2-9-20-12-18l3 12 5 19 5 24-1-4c-4-7-12-18-23-21l-11-4-4-2c-5-3-8-5-13-6l-9-2 7 4c6 3 7 5 5 10l-2-1-9-4h-3c0-1 0-5-1-2l-8 8-3 5c-4-7-1-16 2-23l1-6c-1-1-5 7-7 13s-5 16-4 24l1 5-3 5c-4-10-9-15-5-26l4-13-4 4c-5 7-7 14-7 22l-12-18c-6-7-10-16-12-16l6 17c6 12 11 24 14 37-5-14-14-30-23-40-2-3-3-3-3-1v1l-6-6 5 15c7 14 12 24 16 38 0 0-7 3-9 0l-1-1c-1-10-4-21-9-31-4-8-9-16-11-16l4 14v6l-6-10c-1 0-1 2 2 11v6l-5-11-2-3 7-22c3-7 3-6 0-3-7 12-7 10-10 18l-8 18-8 9 3-18c1-2 0-2-2 0l-7 14v-7c0-1-6-26-10-24l2 5c3 10 3 18 0 28 0 0-2 19-5 13v-5c1-16-2-33-9-48l-1 1c3 15 0 39 0 49l-8-27c-1-4-1-16-2-15-2 1-2 14-2 33l-3 14v2s-11 9-9 0c3-8 6-13 8-22 2-6 1-12-1-18l-1 3-6 20-1-2 1-7c2-5 2-12 2-15l-3-9-1 5-2 7c-1-1-4 17-4 19v-14l-2-8c-2-3-7 25-7 27l-2-23-2-6h-2zm183 3l10 7-1 2c1 2 1 2-1 0l-1-1v8l2 17v7h-4c-2-1 0-6 0-6 0-22-2-37-5-31l-2 1c-3 10-5 20-5 30l-5-14 10-21 2 1zm20 2c5 3 5 4 5 8v2l-7-6-1-6c0-2 0-1 3 2zm16 5h-2l-3-5c1 1 7 3 5 5zm-261 21l2 12c0 6-6 7-8 0l-3-15c-2-9-4-15-11-22 11 7 17 15 20 25zm267-17c9 8 13 18 14 30v-1s-8 4-9 0v-1c-1-9-4-18-7-25-2-2-2-2-1-4l1-2 2 3zm-127 17s7 10 3 12c-3 2-8 0-8 0-4-8-2-17 0-26 0-1 3 5 5 14zm247-5v17s-3 3-5 3c-1 1-4-3-4-3l2-3 4-19 2-5 1 10zm63 1l6 16c3 7-9 0-9 0v-6l-1-16v-4l4 10zm-200 2l-1 12c0 2 0 2-1 0l-3-14-1-8 6 10zm-39 14h2c1 2-4 2-6 0-2-1 1-6 1-6l3 6z" fill="#222220"/><path d="M725 20l-3 4h-7c-2 2-26 35-26 37v3l1 2-3 4c-6 11-12 24-14 36l-6 33v4l-2 1h-1l1-2c2-3 1-4 0-1-3 3-4 3-9 5-8 2-11 3-11 7l-3 2a144 144 0 015-24l2-1 2-3c5-1 7-3 12-10 1-3 3-6 7-7l1-1c0-1-2-1-3 1h-2l1-2v-3l-1 2c-1 3-4 5-7 8-7 4-9 6-10 9l-1 3v-2c7-19 17-37 29-53h-1l-3 5-3 4 2-5 3-4c-9 12-18 25-25 39-9 19-13 34-14 54v6l-1-4-2-5h1l1-1-2-2-1-6-1-4-3-20v-7l1-2 2-3c2 0 5-2 6-4l4-7c1-4 4-7 7-10 1 0 2 0 1-1l-3 1h-2l1-4-1 1-2 4c-1 2-1 3-5 5l-8 8-1-4 4-15 1-5 4-4 4-4-4 2-4 3 2-4c2-5 2-5 0-4l-8 24-1 3c1-6 1-8-4-16-2-3-3-4-3-7v-4l-1-1v5l-2-1c-2-3-4-4-2-1l3 4 1 8c0 8 1 10 4 13l2 3 1 8v28l-6-7-3-7v-1 6l-2-2c-4-2-4-1-1 2 4 4 5 4 5 10l4 10 5 5h1l8 34c-6-9-11-15-17-18l-4-2-1 2c1 9 6 18 18 30l8 6c4 2 5 4 7 8l4 26c-11-14-25-26-40-35-5-3-6-3-11 0-7 5-13 9-14 12h1l4 1 15-2 3-1 1 2 2 4 12 18c6 9 14 16 18 19l6 2c6 1 6 2 7 4 2 2 3 5 3 19l1 7-2 7-1 8-1-2c-3-13-8-25-15-37-3-4-2-2 1 8 5 21 7 32 7 47v12c-1-23-3-45-12-66-4-11-11-22-12-20 4 15 8 30 10 45-6-16-11-28-15-33-3-3-3-2 1 15 5 17 8 35 9 53v4l-1-4c-4-12-9-21-17-28l-11-6-7-4c-5-5-7-6-13-9-7-2-7-1-1 4 10 7 18 16 22 29l4 15v-1c-4-14-13-26-23-32-4-4-13-7-14-6l6 5c8 6 14 13 19 23 5 11 7 22 8 34h-9v11h524v-10l-14-4-3-28 2-10c2-10 2-12 1-13l-5 9-1 4-2-6-5-11v9l3 23-3 16-4-12-1-15-3-27-4 17c-2-1-1 3-1 4l-2-4c-2 0-2 3 0 12l1 22v13h-4l1-11c-1-14-1-37-6-41-1-4-3 10-4 30l-1 8-4-18 2-9 6-24-8 13c-3 7-3 7-3-3 0-8 0-12 2-21l1-8c-14 8-11 41-8 53l-4 9c-3-13-3-26-1-40 2-4 1-6 1-11 0 0-4 4-5 8-3 6-4 15-4 22l-1 2-5-14c-2-5-11-28-16-28l11 38 2 9-1 3-13-36-2 3-3-3c2 7 2 13 2 20l-2 8c-1-24-2-38-4-38-1 0-2 4-2 9l-2 6c-2 8-4 24-4 45v10l-1-3c-5-16-6-33-4-49 2-8 2-9 0-8-5 9-8 20-7 30 0 8 0 9-1 6-1-6-5-16-7-17-1 6 0 13 1 20l-3-7-2-6c-2-15-9-31-15-41-2-3-3-3-3-2l1 7 7 28-2 4-5 18 2-11c2-11 2-15 1-14-4 5-5 12-8 17l5-29c-11 19-19 43-17 66l-8 1c3-19 7-36 13-54 5-14 6-19 5-19-2 0-7 9-11 18l-3 6-1-4-2-6-1 6c0 8-2 18-9 38l-6 14 11-39 1-24-3-7v6l-4 23-1 3-3-21-1 3c-1 14-3 23-8 37l-1 2c-1-17-4-36-10-51-3-10-9-20-10-19l3 17c6 22 8 40 7 60l-1 10c-1 0-2 1-2-1-4-42-8-57-20-102l-7-16 3 14c2 11 9 29 13 71-8-37-16-58-18-59v1l3 15c5 18 8 36 9 55-1 2 0 2-2-5-4-8-9-17-15-23l-3-3v-1l-2-1-11-4-3-3c-5-5-12-9-19-10l6 5c6 5 6 5 5 9v4l-2-2-8-4-3-1 1-2c-1-2-1-2-2 0l-2 1v1l-5 8-3 7v-2c-1-7 0-18 2-28l1-8c-1-1-7 9-8 17-2 8-3 20-2 31l1 6-1 4-2 4a79 79 0 01-1-40l1-7v-4s-3 2-4 5c-4 7-5 15-6 26v2l-1-2a178 178 0 00-20-41l5 21c5 15 9 31 12 48-4-19-12-39-20-51-2-4-3-4-3-2v1l-5-7 1 7 4 12c6 18 10 36 13 54h-8v-7a171 171 0 00-18-59l3 17 1 7-6-12c-1 0-1 3 2 15l1 7-5-15-2-4 1-5 5-22c3-9 3-10-1-7-7 12-12 25-14 39l-2 8-5 10-1 4v-2a354 354 0 011-22c-2 2-4 11-5 16l-1 3v-10c0-10-1-13-3-20-1-6-5-11-6-10l1 6c3 12 3 23 1 35l-4 18-1-7c1-21-2-42-8-62l-1 2-4 36-2-21c-1-6-1-7-3-7-1 2-3 19-3 43l-1 19v8l-4-1h-3v-3l2-9 4-22c1-7 2-17 0-21l-1-2-1 4-3 20-2 6v-2l1-10c1-6 2-15 1-19-1-6-2-13-3-11l-1 6-1 8c-1-1-2 2-3 7v4-4l-2-10c-2-3-2-2-3 9l-1 4 1-21 5-47v-6l2-3 7-5 3-2c1 1 2 0 2-2 6-4 17-25 19-36 0-4 0-4-2-3-6 3-21 21-26 30l-1 5c0 3 0 3-2 5l-1 2-1-9-1-36v-16c3-24 11-47 22-64 4-7 4-7 6-7l3-1 23-25 2-4v-2l3-4 4-5-1 1-4 4-4 3-1-1c-3-1-4-1-8 4l-21 23v5l1 1-5 7c-10 15-18 32-22 50l2-14c1-23 8-47 17-66l2-3 3 1 4-1 13-17 12-17v-7l-1-1 4-3-1-2zm-59 141v13l-1-1-1 2c-7 7-10 18-11 37v4l-2-4-7-19c-2-4-2-9-2-22l-1-12 2-1 4-2c3 0 6-1 11-5l8-7v17zm-48 15l8 10c-1 1-8-8-9-10l-1-3 2 3zm47 4l-3 12v-5l2-11 1 4zm3 23c0 17-1 41-4 59 0 5 0 5-2-5-1-11-4-21-6-32l1-3 2-2c4-8 7-18 8-27l1 10zm153 95c4 2 9 8 9 8l-1 3c1 3 0 3-1-1l-1-1c-1 0-1 3 1 11l1 22v15h-4v-14c0-28-2-47-4-41 0 2-1 2-2 2-3 12-4 24-4 36v3l-2-5-2-10-1-4 2-7 6-19 3 2zm18 1c4 5 4 6 5 11 0 4 0 5-1 3l-3-5-3-3v-4l-1-4 3 2zm12 4c2 1 2 1 2 3l-2 1-2-4-1-3 3 3zm-247 0a60 60 0 0119 48l1 4-4-1h-4v-5l-2-20c-3-10-7-20-13-29l3 3zm254 8c7 11 11 23 12 39v4l-8 1v-8c-1-11-2-22-6-31-2-4-2-4-1-6l1-2 2 3zm-113 22l2 13 1 7v1l-7 1v-3c-1-7 0-32 1-37l3 18zm220-6v17l-1 9c0 2-6 1-7 1l1-9 4-24 1-7c1-1 1 6 2 13zm56 1c3 14 9 31-4 12v-25l4 13zm-181-6l3 8 1 6-2 11v-1l-4-18v-11l2 5zm-109 25v7c-2 1-2 1-1-5v-10l1 8zm245 5c0 3-3 3-2 2v-16l2 14zm-168-4l2 6h-5l-1-2c-1-2 0-3 1-7l1-4 2 7z" fill="#222220"/><path d="M88 338l-2 6 2 24c-4-5-11-27-13-32l-9-15c-2-3-2-2 1 6 7 15 9 23 10 36 2 5-1 8-3 9-1-18-6-34-16-50-5-9-10-16-11-15s1 3 5 12c3 7 12 33 13 40-5-12-18-39-23-43-3-2-3-1 3 12s11 28 12 43l-2-2c-5-9-12-16-20-21l-10-3-7-9c-5-6-8-6-8-6s-13-4-5 0c12 4 19 26 19 26l5 15c-6-11-16-30-20-32l-6-5 11 14c6 9 9 28 11 37l-9 4v9l591-31v-9l-16-3c-4-7-4-12-5-20l1-8 2-10-5 8-2 9-3-10c-1-5-4-8-5-9v7c2 9 5 17 4 18 0 0 2 18-4 16-4-3-4-13-4-13l-2-12-4-20c-1-1-2 0-2 3v12c3 4 1 12 1 12l-7-13c-1-1-1 2 2 9l1 17 1 6s-3 4-4 3v-7c-2-24-4-39-7-33h-1c-2-1-4 10-4 26v6l-6-14 2-8 6-19-8 10c-4 7-4 7-4-2-1-6-1-9 1-16l2-6h-1c-3 3-5 9-7 16l-1 21 1 4-3 8c-4-10-5-20-2-30v-10l-7 6-4 18v2l-8-14-16-19 6 14 6 16 3 9-1-2-13-20-3-5-2 3-3-3 2 5-1 14-6 12c-2-18 2-39 0-39l-5 13c-1 6-3 19-2 35v8c-6-14-10-27-7-41 1-6 1-6-1-5l-4 7c-2 5-3 9-2 16 0 7 0 7-1 5-1-6-7-13-9-13l2 16-3-6-4-4c-1-3-17-36-21-33l2 5 8 20-2 6-5 13 2-8c2-8 2-11 1-11l-7 13 3-23-4 7c-9 16-10 27-14 42-3 16-8 0-8 0-1-13 8-24 13-37 4-12 6-16 4-16l-11 15-3 5-1-3-3-5-1 5c0 6-1 15-8 30l-6 7h-1l12-27c0-8 1-15-4-23l-4 25-2-12c0-3-2-5-3-5-4 12-4 23-9 34-2-14-6-28-13-40-5-6-11-14-13-13l5 13c7 17 10 30 10 45v4l-4 1c2-5-6-37-16-58-6-12-13-21-19-30-6-7 9 21 11 23 1 6 13 38 13 46-2 5-12-28-13-30-2-2-10-20-12-18l3 12 6 19 6 24-1-4c-4-7-13-18-24-20l-11-3-4-2c-5-3-8-5-13-6l-10-1 8 4c6 2 7 4 5 9l-2-1-9-3h-3c0-1 0-5-1-2l-8 8-2 6c-5-7-2-16 0-23l1-6c-1-1-5 7-6 13-2 6-4 16-3 24l1 5-3 5c-4-10-9-14-6-26l3-13-3 4c-5 8-7 15-6 23l-13-18c-6-6-11-15-13-15l7 17c7 11 12 23 16 36-6-14-16-29-25-39-2-3-3-3-3-1v1l-7-5 6 14c8 14 14 24 18 38 0 0-7 3-9 0l-1-1c-1-10-5-21-10-30-5-8-10-16-12-16l4 14 1 6-7-10c-1 0-1 2 3 11v6l-5-11-3-2 6-23c3-7 3-6 0-3l-9 19-7 18-7 9 2-18c0-2-1-2-2 0l-7 15v-7c0-1-7-26-11-24l2 5c3 10 4 18 1 28 0 0-1 19-4 13v-5c0-16-4-32-12-47l-1 1c4 15 2 39 3 49l-9-27c-2-4-2-15-3-14-2 1-1 14 0 33l-3 14v2s-10 9-9 0c3-8 6-13 7-22 2-6 1-12-2-18l-1 3-5 20-1-2 1-7c2-5 1-12 1-15l-3-9-1 5-2 7-3 20v-14l-3-8c-2-3-5 25-5 27l-4-23-2-6h-2zm183-6l10 6v2c1 2 1 2-1 0h-2l1 8 3 16v7l-4 1c-2-1 0-6 0-6-1-22-4-37-7-31l-2 1c-2 10-4 20-3 30l-6-13 9-22 2 1zm20 1c5 3 5 4 6 8v2l-8-6-1-6c0-2 0-1 3 2zm16 4h-2l-3-5c1 1 7 3 5 5zM48 372l2 12c1 6-5 7-8 0l-3-15c-3-9-5-15-12-21 11 6 17 14 21 24zm266-31c9 7 14 17 15 29v-1s-8 4-9 0v-1c-1-9-5-17-8-24-2-2-2-2-1-4v-2l3 3zm-126 23s7 10 3 12c-3 2-8 1-8 1-4-8-3-17-1-26 0-1 3 4 6 13zm246-18l1 17s-3 4-5 4c-1 1-4-3-4-3l2-3 3-19 2-6 1 10zm63-2l7 16c3 7-9 0-9 0v-6l-2-16v-4l4 10zm-200 13v12c0 2 0 2-1 0l-4-14-1-8 6 10zm-38 16l2-1c1 2-4 3-6 1-2-1 1-6 1-6l3 6zm545-243c10 5 17 12 25 27 4 6 5 10 6 14 0 2 0 2 1 1v-19c2 1 2 1 1 5v10h1c0-1 0-1 0 0h3v2c1 1 0 2-1 2v3l2-2c2-4 8-8 19-13 9-5 20-7 28-6 9 1 10 4 1 14l-6 9c-4 8-6 9-14 8l-5-1 3 2c5 4 8 12 6 14l-2 3-1 2c-1 0-2 1-2 3l-3 2-4 1-3 2-3 1-3 1-4-1c-3 0-4-1-7-4-1-2-2-3-2-7l-2-9-1-8v-5l-1 1-1 5-2 7-1 4-1 2-1-2 1-5 2-7 1-4c1-3 1-2-2 2l-4 6-6 7-7 6c-4 1-7 0-8-1l-3-1c-2 0-3-1-3-2l-2-3-2-3c0-1 0-2-2-3s-2-1-1-3l-1-4v-5l2-4c2-3 5-4 13-6h2l-5-1c-8-3-9-5-9-15v-11c-2-12 0-15 8-11zm1448-39c7 3 11 8 16 17l4 8v1l1-1c-1 0-1 0 0 0v-6l-1-5h1v10h1v-1l1 1s1 0 0 0l1 1-1 1v2l1-1c2-3 5-5 12-9 6-2 12-4 17-3 6 0 7 2 1 9l-4 5c-2 5-4 6-8 5l-3-1 2 2c3 3 5 7 3 9l-1 1-1 2-1 1-2 2-2 1-2 1h-2l-2 1-2-1c-2 0-3 0-5-2l-1-5-2-5v-8 1l-1 3-1 4-1 2-1 1v-1l1-3 1-4v-3l-1 2-2 3-4 4c-3 3-3 4-5 4h-5l-1-1-2-1-1-2-2-2-1-2-1-2v-5l1-3c1-2 3-2 8-3h1l-3-1c-5-2-6-3-5-9l-1-7c-1-8 0-10 5-7zM527 78c-2 1-5 4-7 9-3 5-4 10-4 17 0 6 0 7-1 6l-1 1c-1 1-1 2-2 1a56 56 0 00-19 0c-9 3-14 6-14 10 0 2 2 4 6 6l4 3c-1 2 1 3 3 3 3 0 3 0 4 2l4 1 6-3 3-3v3c0 3 1 5 4 7 2 0 3 1 3 2 0 2 0 2 2 3l4 3c2 2 2 3 2 7l1 5 3-3c1-3 0-4-2-7s-2-5-1-5l2 1 1-2v-3c2-1 1-2-2-5-4-3-5-5-5-10l-1-6c-2-4-2-3 2 1l4 4c2 0 1-2-2-6l-2-3 8 3c4 0 7 2 9 6 1 2 4 4 5 3h2c2 0 2 0 2-2-1-3 1-2 5 1 3 3 6 3 9 1l1-2h-2c-6 0-11-3-13-8l-2-2-2-4c-1-3-2-3-6-4l-3-1 2-2c3-3 5-6 5-8l-1-2-1-4c0-3 0-3-2-4-2 0-2 0-3-2l-4-8-1-1-3 1zm1451 54c-3 2-6 5-9 12-4 8-5 14-5 23 0 8-1 9-2 8l-2 2c0 1 0 2-2 1a76 76 0 00-24 0c-12 3-20 8-20 13 0 3 3 5 9 8l4 4c0 2 2 4 5 4s4 0 6 2c1 2 1 2 4 2l8-5 4-3v3c0 6 2 8 6 10 2 1 3 2 3 4l4 3 5 4c2 2 2 4 2 9l1 7c1 0 4-2 4-4 1-3 1-6-2-10-3-3-3-6-1-6l3 1v-2l1-4c2-1 1-3-3-7-5-4-7-7-7-13l-1-8c-3-5-2-5 3 1 2 3 5 5 6 5 2 0 0-3-4-7-4-5-5-8-2-5s5 4 10 4c6 1 10 4 12 8 2 3 5 6 7 4h3c2 0 2 0 2-2 0-4 2-3 6 0 5 5 9 5 12 2l2-2h-3c-7 0-15-5-16-10l-3-4-4-4c-1-5-2-5-7-7h-5l4-4c3-3 7-8 7-10l-2-2c-1-1-2-2-2-6s0-4-2-5c-2 0-3-1-4-3-1-5-4-11-5-11l-2-1-4 1z" fill="#222220"/></svg>