<svg width="260" height="260" viewBox="0 0 260 260" fill="none" xmlns="http://www.w3.org/2000/svg">
<rect width="260" height="260" fill="#497960"/>
<path d="M163.75 163.55L128.95 115.85L150.25 96.2C165.25 83.6 172 78.2 178.3 74.6V74H141.85V74.6C148.75 77.75 152.2 87.8 140.95 99.05L127.3 113.6L111.7 128.9V86.9C111.7 81.5 114.85 78.05 122.35 74.6V74H76V74.6C83.5 78.05 86.65 81.5 86.65 86.9V173.6C86.65 179 83.5 182.45 76 185.9V186.5H122.35V185.9C114.85 182.45 111.7 179 111.7 173.6V132.95L148.9 186.5H183.4V185.9C176.95 181.1 173.35 176.6 163.75 163.55Z" fill="#F3EED8"/>
</svg>
