<svg width="10234" height="6797" xmlns="http://www.w3.org/2000/svg"><g fill="#eee8c9" fill-rule="evenodd"><path d="M5112 0h-34l28 1244c0 2 2 4 3 5a2 2 0 003-1V0zM3118 0h-70l1027 1852c3 6 9 9 15 9a6 6 0 005-9L3118 0zM3018 0h-90l1215 2211c3 5 9 9 16 9a6 6 0 006-9L3018 0zM2314 0h-118l1619 2064c4 5 10 8 17 8a5 5 0 004-8L2314 0zM2539 0h-105l988 1437c4 6 12 10 19 10a7 7 0 006-11L2539 0z"/><path d="M2612 0h-80l1216 1772c4 5 9 8 15 8a5 5 0 005-8L2612 0zM2716 0h-71l927 1385c5 7 13 11 21 11h2a8 8 0 007-13L2716 0zM2106 0h-259l1937 2282c3 4 9 6 14 6a4 4 0 003-7L2106 0zM1240 0H918l2449 2214c4 4 10 6 16 6a4 4 0 003-7L1240 0zM691 0H408l3069 2468c4 4 9 6 15 6a3 3 0 002-6L691 0zM341 0H149l3489 2735c5 3 10 5 16 5a3 3 0 002-6L341 0zM71 0H3v107l3068 2286c4 3 9 5 15 5h1a3 3 0 002-6L71 0zM0 481l2 147 3096 1977c4 3 8 4 12 4a2 2 0 001-4L0 481zM0 746v125l2183 1219c3 2 8 4 12 4a2 2 0 001-4L0 746z"/><path d="M2 869v125l1941 1028 12 3a2 2 0 001-4L2 869zM2 1078v175l2446 1218c4 2 7 3 11 3h1a2 2 0 001-3L2 1078zM2 1949v120l2521 789 8 2h3a1 1 0 000-3L2 1949zM3 2098v116l2700 764a5 5 0 006-4c0-4-3-7-6-8L3 2098zM2 2547v66l2562 608 5 1h4a1 1 0 000-2L2 2547zM3 2614v86l1945 414 5 1h4a1 1 0 000-2L3 2614zM3 2838v112l2798 377c6 1 11-1 16-4a4 4 0 00-2-8L3 2838zM3 3334v65h2445c3 0 6-2 6-5a5 5 0 00-5-6L3 3334zM3 2220v96l1836 517a3 3 0 004-3c0-3-2-5-4-6L3 2220zM2 1283v135l1952 856 10 2h1a2 2 0 001-3L2 1283zM2873 0h-39l519 849c2 3 6 6 10 6a4 4 0 004-6L2873 0zM4870 0h-47l131 1934zM4598 0h-38l275 1844zM4469 0h-34l269 1575zM4042 0h-87l417 1491 5 9 10 14a5 5 0 008-4L4042 0zM4395 0h-30l193 1330zM3852 0h-74l363 1163zM3471 0h-83l672 1396zM3347 0h-119l832 1577zM1 337v84l2520 1683zM0 1500v84l1641 704zM3 3045v84l2764 257z"/><path d="M0 1577v84l2893 1245zM1 632v96l1683 1014zM5112 6797h-34l28-1244c0-2 2-4 3-5a2 2 0 013 1v1248zM3118 6797h-70l1027-1852c3-6 9-9 15-9a6 6 0 015 9l-977 1852zM3018 6797h-90l1215-2211c3-5 9-9 16-9a6 6 0 016 9L3018 6797zM2314 6797h-118l1619-2064c4-5 10-8 17-8a5 5 0 014 8L2314 6797zM2539 6797h-105l988-1437c4-6 12-10 19-10a7 7 0 016 11l-908 1436z"/><path d="M2612 6797h-80l1216-1772c4-5 9-7 15-7a5 5 0 015 7L2612 6797zM2716 6797h-71l927-1385c5-7 13-11 21-11h2a8 8 0 017 13l-886 1383zM2106 6797h-259l1937-2282c3-4 9-6 14-6a4 4 0 013 7L2106 6797zM1240 6797H918l2449-2214c4-4 10-6 16-6a4 4 0 013 7L1240 6797zM691 6797H408l3069-2468c4-4 9-6 15-6a3 3 0 012 6L691 6797zM341 6797H149l3489-2735c5-3 10-5 16-5a3 3 0 012 6L341 6797zM71 6797H3v-107l3068-2286c4-3 9-5 15-5h1a3 3 0 012 6L71 6797zM0 6316l2-147 3096-1977c4-3 8-4 12-4a2 2 0 011 4L0 6316zM0 6051v-124l2183-1220c3-2 8-3 12-3a2 2 0 011 3L0 6051z"/><path d="M2 5928v-124l1941-1029c4-2 8-2 12-2a2 2 0 011 3L2 5928zM2 5719v-174l2446-1219c4-2 7-3 11-3h1a2 2 0 011 3L2 5719zM2 4848v-119l2521-790 8-1h3a1 1 0 010 2L2 4848zM3 4699v-116l2700-764a5 5 0 016 4c0 4-3 7-6 8L3 4699zM2 4250v-65l2562-609h9a1 1 0 010 1L2 4250zM3 4183v-85l1945-415h9a1 1 0 010 1L3 4183zM3 3959v-111l2798-378c6-1 11 1 16 5a4 4 0 01-2 7L3 3959zM3 3464v-66h2445c3 0 6 2 6 5a5 5 0 01-5 6L3 3464zM3 4577v-96l1836-517a3 3 0 014 3c0 3-2 5-4 6L3 4577zM2 5514v-134l1952-857 10-2h1a2 2 0 011 3L2 5514zM2873 6797h-39l519-849c2-3 6-5 10-5a4 4 0 014 5l-494 849zM4870 6797h-47l131-1934zM4598 6797h-38l275-1844zM4469 6797h-34l269-1574zM4042 6797h-87l417-1491 5-9 10-14a5 5 0 018 4l-353 1510zM4395 6797h-30l193-1330zM3852 6797h-74l363-1162zM3471 6797h-83l672-1396zM3347 6797h-119l832-1577zM1 6460v-84l2520-1683zM0 5297v-84l1641-704zM3 3753v-84l2764-257z"/><path d="M0 5220v-84l2893-1245zM1 6166v-96l1683-1014zM5122 6797h34l-28-1244c0-2-2-4-3-5a2 2 0 00-3 1v1248zM7116 6797h70L6159 4945c-3-6-9-9-15-9a6 6 0 00-5 9l977 1852zM7216 6797h90L6091 4586c-3-5-9-9-16-9a6 6 0 00-6 9l1147 2211zM7920 6797h118L6419 4733c-4-5-10-8-17-8a5 5 0 00-4 8l1522 2064zM7695 6797h105l-988-1437c-4-6-12-10-19-10a7 7 0 00-6 11l908 1436z"/><path d="M7622 6797h80L6486 5025c-4-5-9-7-15-7a5 5 0 00-5 7l1156 1772zM7518 6797h71l-927-1385c-5-7-13-11-21-11h-2a8 8 0 00-7 13l886 1383zM8128 6797h259L6450 4515c-3-4-9-6-14-6a4 4 0 00-3 7l1695 2281zM8994 6797h322L6867 4583c-4-4-10-6-16-6a4 4 0 00-3 7l2146 2213zM9543 6797h283L6757 4329c-4-4-9-6-15-6a3 3 0 00-2 6l2803 2468zM9893 6797h192L6596 4062c-5-3-10-5-16-5a3 3 0 00-2 6l3315 2734zM10163 6797h69v-107L7163 4404c-4-3-9-5-15-5h-1a3 3 0 00-2 6l3018 2392zM10234 6316l-2-147-3096-1977c-4-3-8-4-12-4a2 2 0 00-1 4l3111 2124zM10234 6051v-124L8051 4707c-3-2-8-3-12-3a2 2 0 00-1 3l2196 1344z"/><path d="M10232 5928v-124L8291 4775c-4-2-8-2-12-2a2 2 0 00-1 3l1954 1152zM10232 5719v-174L7786 4326c-4-2-7-3-11-3h-1a2 2 0 00-1 3l2459 1393zM10232 4848v-119l-2521-790-8-1h-3a1 1 0 000 2l2532 908zM10231 4699v-116l-2700-764a5 5 0 00-5 4c0 4 2 7 5 8l2700 868zM10232 4250v-65l-2562-609h-9a1 1 0 000 1l2571 673zM10231 4183v-85l-1945-415h-9a1 1 0 000 1l1954 499zM10231 3959v-111l-2798-378c-6-1-11 1-16 5a4 4 0 002 7l2812 477zM10231 3464v-66H7786c-3 0-6 2-6 5a5 5 0 005 6l2446 55zM10231 4577v-96l-1836-517a3 3 0 00-4 3c0 3 2 5 4 6l1836 604zM10232 5514v-134l-1952-857-10-2h-1a2 2 0 00-1 3l1964 990zM7361 6797h39l-519-849c-2-3-6-5-10-5a4 4 0 00-4 5l494 849zM5365 6797h47l-131-1934zM5637 6797h37l-275-1844zM5765 6797h35l-269-1574zM6193 6797h87l-418-1491-5-9-9-14a5 5 0 00-9 4l354 1510zM5840 6797h30l-194-1330zM6382 6797h75l-363-1162zM6763 6797h83l-672-1396zM6887 6797h119l-832-1577zM10234 6460v-84L7713 4693zM10234 5297v-84l-1641-704zM10231 3753v-84l-2763-257z"/><path d="M10234 5220v-84L7341 3891zM10233 6166v-96L8551 5056zM5112 0h34l-28 1244c0 2-2 4-3 5a2 2 0 01-3-1V0zM7106 0h70L6149 1852c-3 6-9 9-15 9a6 6 0 01-5-9L7106 0zM7206 0h90L6081 2211c-3 5-9 9-16 9a6 6 0 01-6-9L7206 0zM7910 0h118L6409 2064c-4 5-10 8-17 8a5 5 0 01-4-8L7910 0zM7685 0h105l-988 1437c-4 6-12 10-19 10a7 7 0 01-6-11L7685 0z"/><path d="M7612 0h80L6476 1772c-4 5-9 8-15 8a5 5 0 01-5-8L7612 0zM7508 0h71l-927 1385c-5 7-13 11-21 11h-2a8 8 0 01-7-13L7508 0zM8118 0h259L6440 2282c-3 4-9 6-14 6a4 4 0 01-3-7L8118 0zM8984 0h322L6857 2214c-4 4-10 6-16 6a4 4 0 01-3-7L8984 0zM9533 0h283L6747 2468c-4 4-9 6-15 6a3 3 0 01-2-6L9533 0zM9883 0h192L6586 2735c-5 3-10 5-16 5a3 3 0 01-2-6L9883 0zM10153 0h69v107L7153 2393c-4 3-9 5-15 5h-1a3 3 0 01-2-6L10153 0zM10224 481l-2 147-3096 1977c-4 3-8 4-12 4a2 2 0 01-1-4l3111-2124zM10224 746v125L8041 2090c-3 2-8 4-12 4a2 2 0 01-1-4l2196-1344z"/><path d="M10222 869v125L8281 2022l-12 3a2 2 0 01-1-4l1954-1152zM10222 1078v175L7776 2471c-4 2-7 3-11 3h-1a2 2 0 01-1-3l2459-1393zM10222 1949v120l-2521 789-8 2h-3a1 1 0 010-3l2532-908zM10221 2098v116l-2700 764a5 5 0 01-5-4c0-4 2-7 5-8l2700-868zM10222 2547v66l-2562 608-5 1h-4a1 1 0 010-2l2571-673zM10221 2614v86l-1945 414-5 1h-4a1 1 0 010-2l1954-499zM10221 2838v112l-2798 377c-6 1-11-1-16-4a4 4 0 012-8l2812-477zM10221 3334v65H7776c-3 0-6-2-6-5a5 5 0 015-6l2446-54zM10221 2220v96l-1836 517a3 3 0 01-4-3c0-3 2-5 4-6l1836-604zM10222 1283v135l-1952 856-10 2h-1a2 2 0 01-1-3l1964-990zM7351 0h39l-519 849c-2 3-6 6-10 6a4 4 0 01-4-6L7351 0zM5355 0h47l-131 1934zM5627 0h37l-275 1844zM5755 0h35l-269 1575zM6183 0h87l-418 1491-5 9-9 14a5 5 0 01-9-4L6183 0zM5830 0h30l-194 1330zM6372 0h75l-363 1163zM6753 0h83l-672 1396zM6877 0h119l-832 1577zM10224 337v84L7703 2104zM10224 1500v84l-1641 704zM10221 3045v84l-2763 257z"/><path d="M10224 1577v84L7331 2906zM10223 632v96L8541 1742z"/></g></svg>