<svg width="588" height="105" fill="none" xmlns="http://www.w3.org/2000/svg"><path d="M86 48l-2 5v24c-3-5-9-27-11-32l-8-16c-2-3-2-2 0 6 7 16 8 24 9 37 1 5-2 8-4 9 0-18-4-35-13-51-5-9-9-17-10-16s0 3 4 13c3 7 10 33 11 40-5-12-16-40-21-44-3-2-3-1 2 12 6 14 10 29 10 44l-2-2c-4-10-11-17-19-22-4-2-4-3-9-4l-7-9c-5-6-8-7-8-7s-12-4-5 0c12 5 18 27 18 27l4 15C20 66 11 47 7 44l-6-5 10 15c6 9 8 28 9 37v13h562V91c-3-7 2-12 1-20l2-8 2-10-5 7-3 9-2-10c-1-5-4-8-5-9v7c2 9 4 17 3 18 0 0 1 18-5 16-4-3-3-13-3-13l-1-12-3-21c-1-1-2 0-3 3v12c3 4 0 12 0 12l-6-13c-1-1-1 2 1 9l1 17v6s-3 4-4 3v-7c0-24-2-39-5-33h-1c-2-2-4 9-5 25v6l-6-14 3-8 7-18-9 9c-4 7-4 7-4-2 0-6 0-9 2-16l2-6h-1c-3 3-5 9-7 16l-3 21 1 4-3 7c-4-10-4-20-1-30l1-7v-3l-7 6-5 18v2l-8-15-15-19 6 14c3 9 1 8 5 16l2 9-1-2c-3-7-7-13-12-20l-2-6-2 3-3-3 1 5-1 14c0 2-7 10-7 12-1-18 4-39 2-39l-6 13c-1 6-3 18-3 34l-1 8c-5-14-8-27-5-41 2-6 2-6 0-5l-5 7c-2 5-3 9-3 16s0 7-1 5c-1-6-6-14-8-14l1 16-3-6-3-4c-1-3-16-37-20-34l2 5 7 20-2 6-6 13 2-8c3-8 3-11 2-11l-8 13 5-23-5 7c-10 15-11 26-16 41-4 16-8 0-8 0 0-13 9-24 15-37 5-11 7-15 5-15-1 0-8 7-12 14l-3 5-1-3-3-5-1 5c0 6-2 14-10 29l-6 7h-1c5-10 9-16 13-27 1-8 2-15-2-23l-6 25-1-12c0-3-2-5-3-5-4 11-5 22-11 33-1-14-4-28-10-40-5-7-11-15-13-14l5 13c6 17 8 31 7 46v4h-4c2-5-4-37-13-58-5-13-12-22-17-31-6-8 7 21 9 23 1 6 11 39 11 47-2 5-11-29-11-31-2-2-9-20-12-18l3 12 5 19 5 24-1-4c-4-7-12-18-23-21l-11-4-4-2c-5-3-8-5-13-6l-9-2 7 4c6 3 7 5 5 10l-2-1-9-4h-3c0-1 0-5-1-2l-8 8-3 5c-4-7-1-16 2-23l1-6c-1-1-5 7-7 13s-5 16-4 24l1 5-3 5c-4-10-9-15-5-26l4-13-4 4c-5 7-7 14-7 22l-12-18c-6-7-10-16-12-16l6 17c6 12 11 24 14 37-5-14-14-30-23-40-2-3-3-3-3-1v1l-6-6 5 15c7 14 12 24 16 38 0 0-7 3-9 0l-1-1c-1-10-4-21-9-31-4-8-9-16-11-16l4 14v6l-6-10c-1 0-1 2 2 11v6l-5-11-2-3 7-22c3-7 3-6 0-3-7 12-7 10-10 18l-8 18-8 9 3-18c1-2 0-2-2 0l-7 14v-7c0-1-6-26-10-24l2 5c3 10 3 18 0 28 0 0-2 19-5 13v-5c1-16-2-33-9-48l-1 1c3 15 0 39 0 49l-8-27c-1-4-1-16-2-15-2 1-2 14-2 33l-3 14v2s-11 9-9 0c3-8 6-13 8-22 2-6 1-12-1-18l-1 3-6 20-1-2 1-7c2-5 2-12 2-15l-3-9-1 5-2 7c-1-1-4 17-4 19V58l-2-8c-2-3-7 25-7 27l-2-23-2-6h-2zm183 3l10 7-1 2c1 2 1 2-1 0l-1-1v8l2 17v7h-4c-2-1 0-6 0-6 0-22-2-37-5-31l-2 1c-3 10-5 20-5 30l-5-14 10-21 2 1zm20 2c5 3 5 4 5 8v2l-7-6-1-6c0-2 0-1 3 2zm16 5h-2l-3-5c1 1 7 3 5 5zM44 79l2 12c0 6-6 7-8 0l-3-15c-2-9-4-15-11-22 11 7 17 15 20 25zm267-17c9 8 13 18 14 30v-1s-8 4-9 0v-1c-1-9-4-18-7-25-2-2-2-2-1-4l1-2 2 3zM184 79s7 10 3 12c-3 2-8 0-8 0-4-8-2-17 0-26 0-1 3 5 5 14zm247-5v17s-3 3-5 3c-1 1-4-3-4-3l2-3 4-19 2-5 1 10zm63 1l6 16c3 7-9 0-9 0v-6l-1-16v-4l4 10zm-200 2l-1 12c0 2 0 2-1 0l-3-14-1-8 6 10zm-39 14h2c1 2-4 2-6 0-2-1 1-6 1-6l3 6z" fill="#222220"/></svg>