<svg width="68" height="40" fill="none" xmlns="http://www.w3.org/2000/svg"><filter id="a" primitiveUnits="objectBoundingBox" x="0%" y="0%"><feOffset dy=".04"/><feComposite operator="out" in="SourceGraphic" result="inverse"/><feFlood flood-color="#17271F" flood-opacity="1" result="color"/><feComposite operator="in" in="color" in2="inverse" result="shadow"/><feComposite in="shadow" in2="SourceGraphic" result="inset-shadow"/><feOffset dy=".04" result="offsetblur"/><feFlood flood-color="#44745C"/><feComposite in2="offsetblur" operator="in"/><feMerge><feMergeNode/><feMergeNode in="inset-shadow"/></feMerge></filter><filter id="b" primitiveUnits="objectBoundingBox" x="0%" y="0%"><feOffset dy=".04"/><feComposite operator="out" in="SourceGraphic" result="inverse"/><feFlood flood-color="#92BFA8" flood-opacity="1" result="color"/><feComposite operator="in" in="color" in2="inverse" result="shadow"/><feComposite in="shadow" in2="SourceGraphic" result="inset-shadow"/><feOffset dy=".04" result="offsetblur"/><feFlood flood-color="#17271F"/><feComposite in2="offsetblur" operator="in"/><feMerge><feMergeNode/><feMergeNode in="inset-shadow"/></feMerge></filter><path filter="url(#a)" d="M0 19C0 8.50659 8.50659 0 19 0h30c10.4934 0 19 8.50659 19 19 0 10.4934-8.5066 19-19 19H19C8.50659 38 0 29.4934 0 19z" fill="#2A4738"/><path filter="url(#b)" d="M30 17.6371C30 7.89641 37.8964 0 47.6371 0H49c10.4934 0 19 8.50659 19 19 0 10.4934-8.5066 19-19 19h-1.3629C37.8964 38 30 30.1036 30 20.3629v-2.7258z" fill="#579475"/></svg>