<svg width="68" height="40" fill="none" xmlns="http://www.w3.org/2000/svg"><filter id="a" primitiveUnits="objectBoundingBox" x="0%" y="0%"><feOffset dy=".04"/><feComposite operator="out" in="SourceGraphic" result="inverse"/><feFlood flood-color="#827A54" flood-opacity="1" result="color"/><feComposite operator="in" in="color" in2="inverse" result="shadow"/><feComposite in="shadow" in2="SourceGraphic" result="inset-shadow"/><feOffset dy=".04" result="offsetblur"/><feFlood flood-color="#F8F5E8"/><feComposite in2="offsetblur" operator="in"/><feMerge><feMergeNode/><feMergeNode in="inset-shadow"/></feMerge></filter><filter id="b" primitiveUnits="objectBoundingBox" x="0%" y="0%"><feOffset dy=".04"/><feComposite operator="out" in="SourceGraphic" result="inverse"/><feFlood flood-color="#FFF" flood-opacity="1" result="color"/><feComposite operator="in" in="color" in2="inverse" result="shadow"/><feComposite in="shadow" in2="SourceGraphic" result="inset-shadow"/><feOffset dy=".04" result="offsetblur"/><feFlood flood-color="#827A54"/><feComposite in2="offsetblur" operator="in"/><feMerge><feMergeNode/><feMergeNode in="inset-shadow"/></feMerge></filter><path filter="url(#a)" d="M0 19C0 8.50659 8.50659 0 19 0h30c10.4934 0 19 8.50659 19 19 0 10.4934-8.5066 19-19 19H19C8.50659 38 0 29.4934 0 19z" fill="#C8C2A8"/><path filter="url(#b)" d="M0 17.6371C0 7.89641 7.89641 0 17.6371 0H19c10.4934 0 19 8.50659 19 19 0 10.4934-8.5066 19-19 19h-1.3629C7.89641 38 0 30.1036 0 20.3629v-2.7258z" fill="#F9F7EC"/></svg>